<?xml version="1.0" standalone="no"?><!DOCTYPE svg PUBLIC "-//W3C//DTD SVG 1.1//EN" "http://www.w3.org/Graphics/SVG/1.1/DTD/svg11.dtd"><svg t="1513156156997" class="icon" style="" viewBox="0 0 1024 1024" version="1.1" xmlns="http://www.w3.org/2000/svg" p-id="1748" xmlns:xlink="http://www.w3.org/1999/xlink" width="200" height="200"><defs><style type="text/css"></style></defs><path d="M468.64896 933.647059c0 30.117647-24.094118 54.211765-48.188235 54.211765H245.778372c-84.329412 0-150.588235-72.282353-150.588236-156.611765V331.294118L426.484254 0h331.294118c84.329412 0 150.588235 72.282353 150.588235 156.611765v343.341176c0 30.117647-24.094118 54.211765-48.188235 54.211765-30.117647 0-48.188235-24.094118-48.188236-54.211765V156.611765c0-30.117647-24.094118-54.211765-54.211764-54.211765H504.790136v252.988235c0 30.117647-24.094118 54.211765-54.211764 54.211765H203.613666V825.223529c0 30.117647 24.094118 54.211765 54.211765 54.211765h174.682353c12.047059 6.023529 36.141176 30.117647 36.141176 54.211765m36.141176-198.776471c0-84.329412 66.258824-144.564706 144.564706-144.564706s144.564706 66.258824 144.564706 144.564706c0 84.329412-66.258824 144.564706-144.564706 144.564706s-144.564706-66.258824-144.564706-144.564706m415.62353 216.847059l-84.329412-90.352941c24.094118-36.141176 42.164706-84.329412 42.164706-132.517647 0-126.494118-102.4-228.894118-222.870588-228.894118S432.507784 602.352941 432.507784 728.847059c0 126.494118 102.4 228.894118 222.870588 228.894117 48.188235 0 90.352941-18.070588 126.494117-42.164705l84.329412 90.352941c6.023529 6.023529 18.070588 12.047059 30.117647 12.047059s18.070588-6.023529 30.117647-12.047059c12.047059-12.047059 12.047059-36.141176-6.023529-54.211765" p-id="1749" fill="#13227a"></path></svg>