<?xml version="1.0" standalone="no"?><!DOCTYPE svg PUBLIC "-//W3C//DTD SVG 1.1//EN" "http://www.w3.org/Graphics/SVG/1.1/DTD/svg11.dtd"><svg t="1513156140290" class="icon" style="" viewBox="0 0 1024 1024" version="1.1" xmlns="http://www.w3.org/2000/svg" p-id="1594" xmlns:xlink="http://www.w3.org/1999/xlink" width="200" height="200"><defs><style type="text/css"></style></defs><path d="M992 1024c-9.6 0-16-3.2-22.4-9.6l-960-960C-3.2 41.6-3.2 22.4 9.6 9.6s32-12.8 44.8 0l960 960c12.8 12.8 12.8 32 0 44.8-6.4 6.4-12.8 9.6-22.4 9.6z" p-id="1595" fill="#13227a"></path><path d="M32 1024c-9.6 0-16-3.2-22.4-9.6-12.8-12.8-12.8-32 0-44.8l960-960c12.8-12.8 32-12.8 44.8 0s12.8 32 0 44.8l-960 960c-6.4 6.4-12.8 9.6-22.4 9.6z" p-id="1596" fill="#13227a"></path></svg>