<?xml version="1.0" standalone="no"?><!DOCTYPE svg PUBLIC "-//W3C//DTD SVG 1.1//EN" "http://www.w3.org/Graphics/SVG/1.1/DTD/svg11.dtd"><svg t="1513155987926" class="icon" style="" viewBox="0 0 1024 1024" version="1.1" xmlns="http://www.w3.org/2000/svg" p-id="1436" xmlns:xlink="http://www.w3.org/1999/xlink" width="200" height="200"><defs><style type="text/css"></style></defs><path d="M948.557355 517.342567A248.315901 248.315901 0 0 1 1023.807183 695.783627a248.315901 248.315901 0 0 1-75.249828 178.313085l-90.393642 88.815273A214.146336 214.146336 0 0 1 707.706715 1023.999147a214.061019 214.061019 0 0 1-150.37168-61.087162l-180.787285-177.545229a248.102607 248.102607 0 0 1-75.207169-178.313084 248.059949 248.059949 0 0 1 75.207169-178.483719l63.433387-59.764745 58.484985 62.110969-62.793507 59.167524a163.083953 163.083953 0 0 0-49.014769 116.969971c0 44.322319 17.618015 85.957145 49.61199 117.439215l180.787285 177.545229a130.023512 130.023512 0 0 0 181.341847 0l90.436301-88.815273a163.809149 163.809149 0 0 0 0-234.963748l-90.436301-88.729956 59.764745-60.959186 90.436301 88.729956zM195.163244 134.438681L134.929255 193.606204A163.46788 163.46788 0 0 0 85.317265 311.04542a163.595856 163.595856 0 0 0 49.61199 117.524533l60.233989 59.167523-59.722085 60.916527-60.276648-59.167523A248.145266 248.145266 0 0 1 0 311.04542c0-67.40064 26.704304-130.791368 75.164511-178.355743l60.276648-59.210182c99.607907-97.730927 261.625394-97.688269 361.062666 0l150.712949 147.982796a248.529194 248.529194 0 0 1 75.207169 178.355743c0 67.40064-26.704304 130.791368-75.207169 178.441061l-90.393642 88.729955-59.764745-60.873868 90.393643-88.729956a163.809149 163.809149 0 0 0 0-235.006407l-150.670291-147.940138c-66.547467-65.438342-174.985711-65.438342-241.618495 0z" p-id="1437" fill="#13227a"></path></svg>