<?xml version="1.0" standalone="no"?><!DOCTYPE svg PUBLIC "-//W3C//DTD SVG 1.1//EN" "http://www.w3.org/Graphics/SVG/1.1/DTD/svg11.dtd"><svg t="1513157730456" class="icon" style="" viewBox="0 0 1203 1024" version="1.1" xmlns="http://www.w3.org/2000/svg" p-id="2647" xmlns:xlink="http://www.w3.org/1999/xlink" width="234.9609375" height="200"><defs><style type="text/css"></style></defs><path d="M634.157019 634.865532a47.092621 47.092621 0 0 0-16.287674-15.579513 48.86302 48.86302 0 0 0-25.139669-6.019358 45.676301 45.676301 0 0 0-41.073263 21.598871 64.088454 64.088454 0 0 0-8.497917 21.952951 124.636109 124.636109 0 0 0-2.478559 25.13967 121.09531 121.09531 0 0 0 2.478559 24.78559 66.212933 66.212933 0 0 0 8.497917 21.952951A44.968141 44.968141 0 0 0 566.527766 743.568047a49.2171 49.2171 0 0 0 25.13967 5.665278 50.279339 50.279339 0 0 0 25.13967-5.665278 44.259982 44.259982 0 0 0 16.287673-15.579513 65.504773 65.504773 0 0 0 8.497916-21.952951 121.44939 121.44939 0 0 0 2.478559-24.78559 124.990188 124.990188 0 0 0-2.478559-25.139669 63.380294 63.380294 0 0 0-7.435676-21.244792z" p-id="2648"></path><path d="M1067.90484 0.000354H135.966664A135.612584 135.612584 0 0 0 0 134.550699v151.192097h1203.871504v88.519964H0v515.186187a135.612584 135.612584 0 0 0 135.966664 134.550345h931.938176a135.612584 135.612584 0 0 0 135.966664-134.550345V134.550699A135.612584 135.612584 0 0 0 1067.90484 0.000354z m-70.815971 200.055118h-175.269528a44.259982 44.259982 0 1 1 0-88.519964h174.207288a44.259982 44.259982 0 1 1 0 88.519964zM201.117357 788.182109H135.966664v-63.380294h65.150693z m220.237669-16.995833a107.994355 107.994355 0 0 1-70.815971 22.307031 118.970831 118.970831 0 0 1-44.259981-8.143837 98.434199 98.434199 0 0 1-35.407986-22.307031 101.620918 101.620918 0 0 1-21.952951-35.407985 118.616751 118.616751 0 0 1-7.789756-43.905902A141.631942 141.631942 0 0 1 249.626297 637.344091a102.683158 102.683158 0 0 1 21.598871-35.407985 98.08012 98.08012 0 0 1 35.407986-24.07743 118.262671 118.262671 0 0 1 47.4467-8.497917 135.258504 135.258504 0 0 1 35.407985 4.957118 98.08012 98.08012 0 0 1 31.513107 14.871354 80.730207 80.730207 0 0 1 22.661111 25.13967 79.667967 79.667967 0 0 1 9.914236 35.407985h-57.715016a39.656944 39.656944 0 0 0-43.551822-35.407985 41.781423 41.781423 0 0 0-23.72335 6.373437 51.341579 51.341579 0 0 0-15.579514 16.641753 70.815971 70.815971 0 0 0-8.497917 22.307031 117.908591 117.908591 0 0 0-2.478559 24.07743 112.951473 112.951473 0 0 0 2.478559 23.369271 72.94045 72.94045 0 0 0 8.143837 21.598871 46.384461 46.384461 0 0 0 15.225434 15.933593 42.135503 42.135503 0 0 0 23.36927 6.019358 43.551822 43.551822 0 0 0 32.575347-11.684636 55.236457 55.236457 0 0 0 14.517274-31.513107h57.006856a96.30972 96.30972 0 0 1-33.637586 64.088454z m274.765967-43.197742a100.204599 100.204599 0 0 1-22.661111 35.407985 98.434199 98.434199 0 0 1-35.407985 22.307031 128.530987 128.530987 0 0 1-46.030381 7.789757 126.760588 126.760588 0 0 1-45.676301-7.789757 98.788279 98.788279 0 0 1-35.407986-22.307031 100.204599 100.204599 0 0 1-22.66111-35.407985 128.530987 128.530987 0 0 1-7.789757-46.030381 130.301386 130.301386 0 0 1 7.789757-46.384461 99.496439 99.496439 0 0 1 22.66111-35.407985 100.558679 100.558679 0 0 1 35.407986-22.661111 123.927949 123.927949 0 0 1 45.676301-8.143837 125.698348 125.698348 0 0 1 46.030381 8.143837 97.72604 97.72604 0 0 1 57.715016 58.069096 130.301386 130.301386 0 0 1 7.789757 46.384461 128.530987 128.530987 0 0 1-7.081597 46.030381z m376.740965 60.193575h-58.777256v-120.74123-20.182552a43.197742 43.197742 0 0 0-4.603038-16.641753 27.972308 27.972308 0 0 0-10.976476-10.976475 40.365103 40.365103 0 0 0-19.828472-4.248959 38.240624 38.240624 0 0 0-20.182551 4.603038 35.407985 35.407985 0 0 0-12.038715 12.392795 49.57118 49.57118 0 0 0-5.665278 17.349913 130.301386 130.301386 0 0 0 0 19.474392v118.616751h-61.609895v-118.970831-18.766232a52.403818 52.403818 0 0 0-3.540798-16.995833 26.201909 26.201909 0 0 0-10.268316-12.392795 39.656944 39.656944 0 0 0-21.598871-4.603038 44.614062 44.614062 0 0 0-10.976475 1.770399 35.407985 35.407985 0 0 0-13.455035 7.081597 40.719183 40.719183 0 0 0-10.976475 14.871354 59.839495 59.839495 0 0 0-4.603038 25.49375v123.573869H743.567693v-212.447913h56.652777v29.034548a84.625085 84.625085 0 0 1 27.972308-25.493749 76.835328 76.835328 0 0 1 37.532465-9.206076 87.103644 87.103644 0 0 1 37.178385 7.789757 52.049739 52.049739 0 0 1 25.493749 27.618228 90.644443 90.644443 0 0 1 26.201909-24.78559 70.815971 70.815971 0 0 1 38.948784-10.622395 115.784112 115.784112 0 0 1 31.513107 4.248958 64.088454 64.088454 0 0 1 25.13967 13.100955 60.547655 60.547655 0 0 1 16.287673 23.72335 94.893401 94.893401 0 0 1 5.665278 35.407985z" p-id="2649"></path></svg>