<?xml version="1.0" standalone="no"?><!DOCTYPE svg PUBLIC "-//W3C//DTD SVG 1.1//EN" "http://www.w3.org/Graphics/SVG/1.1/DTD/svg11.dtd"><svg t="1513158125716" class="icon" style="" viewBox="0 0 1024 1024" version="1.1" xmlns="http://www.w3.org/2000/svg" p-id="4001" xmlns:xlink="http://www.w3.org/1999/xlink" width="200" height="200"><defs><style type="text/css"></style></defs><path d="M805.75744 957.197548 220.741473 957.197548c-76.800153 0-139.28937-62.49024-139.28937-139.28937L81.452103 205.033723c0-76.800153 62.49024-139.28937 139.28937-139.28937l362.15318 0c15.397688 0 27.857465 12.459776 27.857465 27.857465s-12.459776 27.857465-27.857465 27.857465L220.741473 121.459283c-46.085618 0-83.573417 37.488823-83.573417 83.573417l0 612.874455c0 46.085618 37.488823 83.573417 83.573417 83.573417l585.01699 0c46.085618 0 83.573417-37.488823 83.573417-83.573417L889.331881 427.89651c0-15.397688 12.459776-27.857465 27.857465-27.857465 15.397688 0 27.857465 12.459776 27.857465 27.857465l0 390.010645C945.04681 894.707308 882.557594 957.197548 805.75744 957.197548z" p-id="4002" fill="#13227a"></path><path d="M320.611042 723.016994c-7.345292 0-14.446014-2.911306-19.696598-8.16189-6.202259-6.202259-9.113565-14.962783-7.889691-23.641443l19.696598-137.901767c0.870834-5.957689 3.618411-11.480472 7.889691-15.751752l304.777425-304.750819c10.881838-10.881838 28.511357-10.881838 39.393195 0L782.986831 350.987886c5.222955 5.222955 8.16189 12.297071 8.16189 19.696598 0 7.399527-2.937912 14.47262-8.16189 19.696598L478.209406 695.158507c-4.27128 4.27128-9.794064 7.018857-15.751752 7.889691l-137.901767 19.696598C323.222519 722.93513 321.91678 723.016994 320.611042 723.016994zM366.559537 570.397015l-13.112646 91.925642 91.925642-13.112646 278.524504-278.524504-78.812997-78.785368L366.559537 570.397015z" p-id="4003" fill="#13227a"></path><path d="M842.076624 319.756581c-7.127328 0-14.255679-2.720971-19.696598-8.16189L704.173834 193.417151c-5.222955-5.222955-8.16189-12.297071-8.16189-19.696598s2.937912-14.47262 8.16189-19.696598l50.655703-50.655703c42.086537-42.113143 115.457592-42.113143 157.598364 0 43.418882 43.473117 43.418882 114.151853 0 157.571758l-50.655703 50.655703C856.331279 317.036633 849.203952 319.756581 842.076624 319.756581zM763.263627 173.720553l78.812997 78.785368 30.959106-30.959106c21.709441-21.709441 21.709441-57.049321 0-78.785368-21.084201-21.084201-57.783031-21.084201-78.812997 0L763.263627 173.720553z" p-id="4004" fill="#13227a"></path></svg>