<?xml version="1.0" standalone="no"?><!DOCTYPE svg PUBLIC "-//W3C//DTD SVG 1.1//EN" "http://www.w3.org/Graphics/SVG/1.1/DTD/svg11.dtd"><svg t="1513157615762" class="icon" style="" viewBox="0 0 1024 1024" version="1.1" xmlns="http://www.w3.org/2000/svg" p-id="1869" xmlns:xlink="http://www.w3.org/1999/xlink" width="200" height="200"><defs><style type="text/css"></style></defs><path d="M130.631176 578.300009l761.54345 0 0 281.418414-761.54345 0 0-281.418414Z" p-id="1870"></path><path d="M130.631176 146.347113l0 157.784606 761.54345 0L892.174626 146.347113 130.631176 146.347113zM268.042779 269.207301c-24.37413 0-44.148499-19.684318-44.148499-43.968397 0-24.284079 19.774369-43.968397 44.148499-43.968397 24.373107 0 44.148499 19.684318 44.148499 43.968397C312.191278 249.522983 292.415886 269.207301 268.042779 269.207301z" p-id="1871"></path><path d="M130.631176 361.207645l0 157.784606 761.54345 0L892.174626 361.207645 130.631176 361.207645zM268.042779 487.064075c-24.37413 0-44.148499-19.684318-44.148499-43.968397s19.774369-43.968397 44.148499-43.968397c24.373107 0 44.148499 19.684318 44.148499 43.968397S292.415886 487.064075 268.042779 487.064075z" p-id="1872"></path></svg>