<?xml version="1.0" standalone="no"?><!DOCTYPE svg PUBLIC "-//W3C//DTD SVG 1.1//EN" "http://www.w3.org/Graphics/SVG/1.1/DTD/svg11.dtd"><svg t="1513157814968" class="icon" style="" viewBox="0 0 1024 1024" version="1.1" xmlns="http://www.w3.org/2000/svg" p-id="3336" xmlns:xlink="http://www.w3.org/1999/xlink" width="200" height="200"><defs><style type="text/css"></style></defs><path d="M256 692.224c-22.528 0-40.96 4.096-55.296 14.336-16.384 10.24-22.528 24.576-22.528 43.008 0 18.432 8.192 32.768 22.528 40.96 6.144 4.096 22.528 8.192 47.104 16.384 22.528 6.144 36.864 12.288 38.912 14.336 12.288 6.144 18.432 14.336 18.432 26.624 0 8.192-4.096 14.336-12.288 20.48-8.192 4.096-20.48 8.192-34.816 8.192-16.384 0-28.672-4.096-36.864-8.192-8.192-6.144-14.336-18.432-16.384-32.768h-32.768c2.048 26.624 10.24 45.056 28.672 57.344 14.336 10.24 34.816 14.336 59.392 14.336 26.624 0 47.104-6.144 61.44-16.384 14.336-10.24 20.48-24.576 20.48-43.008 0-18.432-8.192-32.768-26.624-45.056-8.192-4.096-26.624-12.288-53.248-20.48-18.432-6.144-30.72-10.24-34.816-12.288-10.24-6.144-14.336-12.288-14.336-20.48 0-10.24 4.096-16.384 12.288-20.48 6.144-4.096 16.384-6.144 28.672-6.144 14.336 0 26.624 2.048 34.816 8.192 8.192 6.144 12.288 14.336 16.384 26.624h32.768c-2.048-22.528-10.24-38.912-24.576-49.152-14.336-12.288-32.768-16.384-57.344-16.384z m186.368 0c-22.528 0-40.96 4.096-55.296 14.336-16.384 10.24-22.528 24.576-22.528 43.008 0 18.432 8.192 32.768 22.528 40.96 6.144 4.096 22.528 8.192 47.104 16.384 22.528 6.144 36.864 12.288 38.912 14.336 12.288 6.144 18.432 14.336 18.432 26.624 0 8.192-4.096 14.336-12.288 20.48-8.192 4.096-20.48 8.192-34.816 8.192-16.384 0-28.672-4.096-36.864-8.192-8.192-6.144-14.336-18.432-16.384-32.768h-32.768c2.048 26.624 10.24 45.056 28.672 57.344 14.336 10.24 34.816 14.336 59.392 14.336 26.624 0 47.104-6.144 61.44-16.384 14.336-10.24 22.528-24.576 22.528-43.008 0-18.432-8.192-32.768-26.624-45.056-8.192-4.096-26.624-12.288-53.248-20.48-18.432-6.144-30.72-10.24-34.816-12.288-10.24-6.144-14.336-12.288-14.336-20.48 0-10.24 4.096-16.384 12.288-20.48 6.144-4.096 16.384-6.144 28.672-6.144 14.336 0 26.624 2.048 34.816 8.192 8.192 6.144 12.288 14.336 16.384 26.624h32.768c-2.048-22.528-10.24-38.912-24.576-49.152-16.384-12.288-34.816-16.384-59.392-16.384z m114.688 4.096v204.8h143.36v-28.672h-110.592V696.32h-32.768z" p-id="3337"></path><path d="M81.92 61.44v901.12h860.16v-901.12h-860.16z m-20.48-61.44h901.12c22.528 0 40.96 18.432 40.96 40.96v942.08c0 22.528-18.432 40.96-40.96 40.96h-901.12c-22.528 0-40.96-18.432-40.96-40.96v-942.08c0-22.528 18.432-40.96 40.96-40.96z" p-id="3338"></path><path d="M813.056 71.68h-126.976v133.12c40.96-18.432 83.968-18.432 126.976 0v-133.12z m61.44 249.856l-49.152-38.912c-51.2-38.912-98.304-38.912-149.504 0l-49.152 38.912v-311.296h249.856v311.296z" p-id="3339"></path></svg>